<svg width="126.000000" height="48.000000" viewBox="0 0 126 48" fill="none" xmlns="http://www.w3.org/2000/svg" xmlns:xlink="http://www.w3.org/1999/xlink">
	<desc>
			Created with Pixso.
	</desc>
	<defs>
		<clipPath id="clip333_1359">
			<rect id="Company logo" width="126.369431" height="48.000000" transform="translate(-0.886719 0.000000)" fill="white" fill-opacity="0"/>
		</clipPath>
	</defs>
	<rect id="Company logo" width="126.369431" height="48.000000" transform="translate(-0.886719 0.000000)" fill="#FFFFFF" fill-opacity="0"/>
	<g clip-path="url(#clip333_1359)">
		<path id="Vector" d="M124.68 30.56C119.43 38.46 111.1 36.16 108.6 34.37C107.54 35.01 105.67 36.41 103.18 36.25C97.89 35.91 95.99 29.2 95.99 29.2C96.03 29.22 94.41 29.69 93.54 29.68C93.53 31.65 91.61 36.35 86.43 36.29C80.62 36.22 79.44 28.55 79.44 28.55C79.44 28.55 78.86 29.26 76.66 29.97C76.77 28.46 76.69 36.06 69.72 36.17C64.22 36.26 62.73 28.43 62.73 28.43C62.73 28.43 61.77 29.31 59.92 29.61C60.04 28.08 59.85 36.2 52.88 36.17C48.17 36.15 46.57 31.35 46.69 30.68C46.85 29.83 45.1 36.29 40.53 36.19C38.64 36.14 37.23 34.93 36.35 33.32C35.17 34.51 33.45 36.19 31.53 36.19C28.07 36.19 26.55 33.63 26.81 26.31C26.83 25.45 26.76 25.1 25.78 24.97C25.2 24.89 24.6 24.72 23.97 24.64C23.76 25.24 22.04 36 16.13 36.2C14.14 36.27 13.06 34.74 12.17 33.61C10.8 35.21 9 36.25 6.43 36.25C2.07 36.25 -0.89 33.13 -0.89 29.28C-0.89 25.44 2.07 22.32 6.43 22.32C7.2 22.32 7.41 22.42 8.11 22.6C6.67 10.93 10.08 9.11 13.07 9.11C15.94 9.11 20.84 15.01 13.94 29.97C15.48 34.43 18.77 34.18 20.36 24.99C20.68 23.13 19.82 20.61 21.16 20.25C23.61 19.61 23.88 21.54 25.03 21.86C26.24 22.2 26.95 22.17 28.12 22.38C30.11 22.73 30.89 23.68 30.65 25.79C30.36 28.47 29.85 32.37 31.41 32.84C32.53 33.19 34.58 31.12 34.94 30C35.3 28.87 35.37 28.48 35.4 27.65C35.45 25.88 35.51 24.58 35.85 23.25C36 22.73 36.16 22.38 36.83 22.36C37.37 22.35 38.37 22.2 38.8 22.51C39.39 22.89 39.32 23.29 39.25 24.33C38.57 39.13 43.8 31.74 45.35 25.82C44.8 19.13 45.18 9.23 49.91 9.06C52.37 8.98 53.46 10.73 53.58 12.03C53.92 15.71 52.02 21.81 49.53 25.91C48.1 34.29 55.76 35.94 56.98 29.26C54.98 28.42 52.82 25 54.58 23.33C55.56 22.4 59.68 23.74 59.75 26.67C61.76 26.19 62.03 25.18 62.06 25.35C61.51 18.66 62.02 9.23 66.75 9.06C69.21 8.98 70.3 10.73 70.42 12.03C70.76 15.71 68.86 21.81 66.37 25.91C64.94 34.29 72.6 35.94 73.82 29.26C72.34 29.01 69.21 25.37 71.01 23.33C71.98 22.25 76.08 24.51 76.54 26.77C78.48 26.28 78.74 25.3 78.77 25.47C78.21 18.78 78.73 9.35 83.46 9.18C85.92 9.1 87.01 10.84 87.13 12.15C87.46 15.83 85.57 21.93 83.08 26.03C81.65 34.4 89.31 36.06 90.53 29.38C88.49 29.08 85.6 25.24 87.93 23.28C88.86 22.49 92.42 24.53 93.25 26.85C94.41 26.81 95.13 26.46 95.28 26.42C93.43 18.57 94.81 9.14 99.9 9.06C102.65 9.02 105.34 10.38 104.16 17.86C103.03 24.99 98.98 27.98 98.99 28.02C99.23 28.88 101.3 36.03 106.54 32.25C106.27 31.71 106 31.16 105.85 30.48C104.98 26.56 106.68 22.14 111.31 21.42C113.97 21.01 116.46 22.15 116.86 24.74C117.51 28.96 113.21 32.02 111.57 32.68C110.84 32.31 118.21 36.51 122.59 28.1C122.85 27.62 123.15 27.66 123.55 27.91C123.83 28.09 125.42 29.42 124.68 30.56ZM9.59 28.25C9.37 27.66 8.91 26.36 8.75 25.79C7.86 25.11 7.23 25 6.08 25C3.54 25 2.05 27.08 2.05 29.32C2.05 31.56 3.68 33.64 6.22 33.64C8.42 33.64 10.09 32.32 10.6 30.44C10.25 29.71 9.89 29.04 9.59 28.25ZM13.01 12.2C11.22 12.2 10.62 15.97 10.74 19.19C10.84 22.03 11.74 24.54 12.2 25.66C12.32 25.8 12.3 25.71 12.41 25.86C15.5 19.84 14.22 12.2 13.01 12.2ZM50.16 12.31C47.86 12.08 47.87 20.6 48.16 22.51C49.36 20.81 51.44 12.77 50.16 12.31ZM67.01 12.31C64.7 12.08 64.71 20.6 65 22.51C66.2 20.81 68.28 12.77 67.01 12.31ZM83.71 12.43C81.41 12.2 81.42 20.71 81.71 22.62C82.91 20.93 84.99 12.89 83.71 12.43ZM100.15 11.82C96.56 12.46 97.4 23.07 97.94 24.94C102.18 19.78 102.26 11.62 100.15 11.82ZM113.62 25.09C113.44 24.41 112.52 24.05 111.89 24.14C110.09 24.35 108.34 26.35 109.02 29.38C109.17 30.05 109.54 30.67 109.54 30.65C113.58 28.25 113.92 26.36 113.62 25.09ZM37.53 20.02C37.02 20.02 36.51 19.88 36.09 19.63C35.66 19.37 35.32 19.01 35.13 18.59C34.93 18.17 34.88 17.7 34.98 17.26C35.08 16.81 35.33 16.4 35.69 16.07C36.06 15.75 36.52 15.53 37.02 15.44C37.53 15.35 38.06 15.4 38.53 15.57C39.01 15.75 39.41 16.04 39.7 16.42C39.99 16.8 40.14 17.25 40.14 17.71C40.14 18.01 40.07 18.31 39.94 18.59C39.81 18.87 39.62 19.13 39.38 19.34C39.14 19.55 38.85 19.73 38.53 19.84C38.22 19.96 37.88 20.02 37.53 20.02Z" fill="#0D0C22" fill-opacity="1.000000" fill-rule="evenodd"/>
	</g>
</svg>
