<svg width="129.000000" height="48.000000" viewBox="0 0 129 48" fill="none" xmlns="http://www.w3.org/2000/svg" xmlns:xlink="http://www.w3.org/1999/xlink">
	<desc>
			Created with Pixso.
	</desc>
	<defs>
		<clipPath id="clip333_1360">
			<rect id="Company logo" width="128.626022" height="48.000000" transform="translate(-0.517578 0.000000)" fill="white" fill-opacity="0"/>
		</clipPath>
	</defs>
	<rect id="Company logo" width="128.626022" height="48.000000" transform="translate(-0.517578 0.000000)" fill="#FFFFFF" fill-opacity="0"/>
	<g clip-path="url(#clip333_1360)">
		<path id="Vector" d="M13.37 13.1L13.37 22.19L3.95 22.19L3.95 13.1L-0.52 13.1L-0.52 34.79L3.95 34.79L3.95 26L13.37 26L13.37 34.79L17.84 34.79L17.84 13.1L13.37 13.1ZM63.57 19.45C63.57 17.54 64.99 16.94 66.54 16.94C67.8 16.94 69.46 17.79 70.54 18.81L73.32 15.91C71.93 14.25 69.12 13.1 66.82 13.1C62.22 13.1 58.89 15.49 58.89 19.45C58.89 26.79 69.02 24.46 69.02 28.57C69.02 29.84 67.63 30.96 66.04 30.96C63.53 30.96 62.72 29.87 61.57 28.72L58.49 31.56C60.46 33.71 62.89 34.8 65.8 34.8C70.17 34.8 73.69 32.38 73.69 28.6C73.69 20.45 63.56 22.98 63.56 19.45L63.57 19.45ZM48.29 18.6C46.19 18.6 44.72 19.14 43.3 20.37L43.3 13.23L39.06 13.23L39.06 26.47C39.06 31.42 43.1 34.81 47.64 34.81C52.68 34.81 57.11 31.36 57.11 26.71C57.11 22.12 53.03 18.6 48.29 18.6L48.29 18.6ZM123.01 28.9C123.01 30.37 123.72 31.33 126.23 31.33L126.23 31.33C126.7 31.33 127.25 31.3 127.72 31.27L126.67 34.69C126.11 34.78 125.54 34.82 124.97 34.81C121.35 34.81 118.71 33.1 118.71 29.71L118.71 16.44L123.01 14.73L123.01 19.08L126.9 19.08L126.9 22.38L123.01 22.38L123.01 28.9ZM84.94 18.4C89.98 18.4 94.41 21.85 94.41 26.51L94.4 26.51C94.4 31.11 90.33 34.62 85.58 34.62C83.48 34.62 82.02 34.08 80.6 32.85L80.6 40L76.35 40L76.35 26.75C76.35 21.8 80.4 18.4 84.94 18.4ZM31.06 30.1C31.75 29.49 32.14 28.65 32.14 27.78L32.14 18.49L36.37 18.49L36.37 27.78C36.37 29.65 35.53 31.43 34.05 32.75C32.56 34.07 30.54 34.81 28.44 34.81C26.33 34.81 24.32 34.07 22.83 32.75C21.34 31.43 20.51 29.65 20.51 27.78L20.51 18.49L24.75 18.49L24.75 27.78C24.75 28.65 25.14 29.49 25.83 30.1C26.52 30.71 27.46 31.06 28.45 31.06C29.43 31.06 30.37 30.71 31.06 30.1ZM89.57 28.84C90.1 28.13 90.38 27.31 90.38 26.46C90.38 25.33 89.88 24.24 88.97 23.44C88.07 22.64 86.84 22.19 85.57 22.19C84.61 22.19 83.68 22.44 82.89 22.91C82.09 23.38 81.48 24.05 81.11 24.83C80.75 25.61 80.65 26.47 80.84 27.3C81.02 28.13 81.48 28.89 82.16 29.48C82.83 30.08 83.69 30.49 84.62 30.65C85.56 30.82 86.53 30.73 87.41 30.41C88.29 30.09 89.04 29.54 89.57 28.84ZM48.26 31.03C47.31 31.03 46.38 30.78 45.58 30.31C44.79 29.84 44.17 29.17 43.81 28.39C43.44 27.61 43.35 26.75 43.53 25.92C43.72 25.09 44.18 24.33 44.85 23.74C45.53 23.14 46.39 22.73 47.32 22.57C48.25 22.4 49.22 22.49 50.1 22.81C50.99 23.13 51.74 23.68 52.27 24.38C52.8 25.09 53.08 25.91 53.08 26.76C53.08 27.89 52.57 28.98 51.67 29.78C50.76 30.58 49.54 31.03 48.26 31.03Z" fill="#33475B" fill-opacity="1.000000" fill-rule="evenodd"/>
		<path id="Vector" d="M108.09 18.34L108.09 14.6C108.64 14.37 109.11 14 109.45 13.54C109.78 13.08 109.96 12.55 109.96 12L109.96 11.92C109.96 11.15 109.61 10.42 109.01 9.88C108.4 9.34 107.57 9.04 106.71 9.04L106.61 9.04C105.75 9.04 104.93 9.34 104.32 9.88C103.71 10.42 103.37 11.15 103.36 11.92L103.36 12C103.37 12.55 103.54 13.08 103.88 13.54C104.21 14 104.68 14.37 105.24 14.6L105.24 18.34C103.63 18.56 102.12 19.15 100.86 20.05L89.26 12.06C89.34 11.79 89.39 11.52 89.39 11.25C89.39 10.6 89.18 9.98 88.78 9.44C88.38 8.91 87.8 8.49 87.13 8.24C86.47 8 85.73 7.93 85.02 8.06C84.31 8.18 83.65 8.49 83.14 8.94C82.63 9.4 82.28 9.98 82.13 10.61C81.99 11.24 82.06 11.89 82.34 12.48C82.62 13.08 83.09 13.58 83.69 13.94C84.29 14.3 85 14.49 85.72 14.49C86.36 14.49 86.99 14.34 87.54 14.05L98.94 21.92C97.91 23.29 97.37 24.91 97.4 26.56C97.42 28.2 98.01 29.81 99.08 31.15L95.61 34.23C95.33 34.15 95.04 34.11 94.75 34.1C94.15 34.1 93.57 34.26 93.08 34.56C92.58 34.85 92.19 35.27 91.97 35.75C91.74 36.24 91.68 36.78 91.79 37.3C91.91 37.81 92.2 38.29 92.62 38.66C93.04 39.04 93.58 39.29 94.16 39.39C94.75 39.5 95.35 39.44 95.9 39.24C96.45 39.04 96.92 38.7 97.25 38.26C97.58 37.82 97.76 37.3 97.76 36.77C97.76 36.52 97.71 36.26 97.62 36.01L101.05 32.97C102.17 33.73 103.47 34.25 104.86 34.49C106.24 34.74 107.67 34.7 109.03 34.38C110.39 34.06 111.66 33.47 112.72 32.66C113.79 31.84 114.63 30.82 115.18 29.67C115.74 28.52 115.99 27.27 115.91 26.02C115.84 24.77 115.44 23.56 114.76 22.47C114.08 21.37 113.12 20.43 111.96 19.72C110.8 19.01 109.48 18.54 108.09 18.34ZM106.66 30.66C105.72 30.66 104.81 30.41 104.02 29.95C103.24 29.49 102.63 28.83 102.27 28.06C101.92 27.29 101.82 26.44 102.01 25.63C102.19 24.81 102.64 24.06 103.3 23.47C103.97 22.88 104.82 22.48 105.74 22.32C106.66 22.16 107.61 22.24 108.48 22.56C109.35 22.88 110.09 23.42 110.61 24.11C111.13 24.8 111.41 25.62 111.41 26.45C111.41 27.56 110.91 28.64 110.02 29.42C109.13 30.21 107.92 30.66 106.66 30.66Z" fill="#FF7A59" fill-opacity="1.000000" fill-rule="nonzero"/>
	</g>
</svg>
