<svg width="125.000000" height="48.000000" viewBox="0 0 125 48" fill="none" xmlns="http://www.w3.org/2000/svg" xmlns:xlink="http://www.w3.org/1999/xlink">
	<desc>
			Created with Pixso.
	</desc>
	<defs>
		<clipPath id="clip333_1362">
			<rect width="125.241127" height="48.000000" transform="translate(-0.341797 0.000000)" fill="white" fill-opacity="0"/>
		</clipPath>
	</defs>
	<rect width="125.241127" height="48.000000" transform="translate(-0.341797 0.000000)" fill="#FFFFFF" fill-opacity="0"/>
	<g clip-path="url(#clip333_1362)">
		<path d="M16.88 38.06C14.99 38.35 13.07 38.44 11.09 38.68L5.04 22.97L5.04 39.35C3.16 39.53 1.44 39.76 -0.35 40L-0.35 10L4.68 10L11.55 27.02L11.55 10L16.88 10L16.88 38.06ZM27.29 20.98C29.34 20.98 32.48 20.89 34.36 20.89L34.36 25.58C32.01 25.58 29.27 25.58 27.29 25.67L27.29 32.64C30.4 32.47 33.5 32.23 36.64 32.14L36.64 36.65L22 37.68L22 10L36.64 10L36.64 14.68L27.29 14.68L27.29 20.98ZM56.31 14.68L50.82 14.68L50.82 36.25C49.04 36.25 47.25 36.25 45.53 36.3L45.53 14.68L40.05 14.68L40.05 10L56.31 10L56.31 14.68ZM64.91 20.66L72.14 20.66L72.14 25.35L64.91 25.35L64.91 35.98L59.72 35.98L59.72 10L74.49 10L74.49 14.68L64.91 14.68L64.91 20.66ZM83.08 31.88C86.09 31.94 89.13 32.14 92.08 32.29L92.08 36.92C87.35 36.66 82.62 36.39 77.8 36.3L77.8 10L83.08 10L83.08 31.88ZM96.54 37.24C98.23 37.33 100.01 37.42 101.73 37.59L101.73 10L96.54 10L96.54 37.24ZM124.9 10L118.19 24.26L124.9 40C122.92 39.76 120.93 39.44 118.95 39.15L115.15 30.47L111.28 38.44C109.36 38.15 107.52 38.06 105.6 37.83L112.41 24.09L106.26 10L111.94 10L115.41 17.88L119.12 10L124.9 10L124.9 10Z" fill="#D81F26" fill-opacity="1.000000" fill-rule="nonzero"/>
	</g>
</svg>
