<svg width="145.000000" height="48.000000" viewBox="0 0 145 48" fill="none" xmlns="http://www.w3.org/2000/svg" xmlns:xlink="http://www.w3.org/1999/xlink">
	<desc>
			Created with Pixso.
	</desc>
	<defs>
		<clipPath id="clip333_1361">
			<rect id="Company logo" width="145.550507" height="48.000000" transform="translate(-0.892578 0.000000)" fill="white" fill-opacity="0"/>
		</clipPath>
	</defs>
	<rect id="Company logo" width="145.550507" height="48.000000" transform="translate(-0.892578 0.000000)" fill="#FFFFFF" fill-opacity="0"/>
	<g clip-path="url(#clip333_1361)">
		<path id="Vector" d="M23.07 6.08L1.46 7.47C-0.28 7.61 -0.9 8.59 -0.9 9.81L-0.9 30.71C-0.9 31.64 -0.51 32.45 0.4 33.52L5.5 39.36C6.32 40.3 7.08 40.5 8.68 40.43L33.76 39.08C35.88 38.95 36.48 38.08 36.48 36.61L36.48 13.1C36.48 12.3 36.09 12.1 34.95 11.36L28.07 7.08C26.41 6.01 25.71 5.87 23.07 6.08ZM9.2 12.71C7.16 12.83 6.71 12.86 5.55 12.03L2.6 9.97C2.29 9.72 2.44 9.37 3.19 9.3L23.95 7.95C25.68 7.82 26.62 8.37 27.29 8.82L30.86 11.09C31.02 11.14 31.41 11.55 30.94 11.55L9.48 12.69C9.39 12.7 9.29 12.7 9.2 12.71ZM105.6 13.69C105.6 14.9 104.47 15.89 103.1 15.89C101.72 15.89 100.59 14.9 100.59 13.69C100.59 12.44 101.72 11.45 103.1 11.45C104.47 11.45 105.6 12.44 105.6 13.69ZM49.8 20.21L49.8 34.77L45.62 34.77L45.62 13.4L49.39 13.4L61.34 27.91L61.63 27.91L61.63 13.4L65.81 13.4L65.81 34.77L62.05 34.77L50.1 20.21L49.8 20.21ZM6.84 36.4L6.84 16.45C6.84 15.58 7.15 15.16 8.06 15.09L32.7 13.81C33.53 13.74 33.91 14.23 33.91 15.09L33.91 34.92C33.91 35.79 33.76 36.52 32.39 36.59L8.81 37.8C7.44 37.87 6.84 37.48 6.84 36.4ZM90.35 18.68L90.35 14.61L94.53 14.61L94.53 18.68L98.5 18.68L98.5 21.61L94.53 21.61L94.53 29.56C94.53 31.18 95.32 31.87 97.08 31.87C97.66 31.87 98 31.84 98.5 31.8L98.5 34.66C97.87 34.77 97.08 34.84 96.28 34.84C92.02 34.84 90.35 33.6 90.35 30.44L90.35 21.61L87.42 21.61L87.42 18.68L90.35 18.68ZM29.44 18.8C30.11 18.73 30.27 18.12 30.11 17.52L24.91 17.77C24.16 17.84 23.54 18.39 23.69 19.12L25.66 19.33L25.66 28.55L17.92 18.12L12.3 18.46C11.24 18.53 10.85 19.4 11.01 19.99L12.9 20.13L12.9 33.31L11.53 33.66C11.01 33.8 10.85 34.46 11.01 34.73L16.24 34.46C18.13 34.46 18.13 33.25 18.13 33.25L15.77 32.79L15.77 22.81L23.2 33.13C24.11 34.14 24.42 34.48 25.63 34.48C26.41 34.48 27.32 34.21 28.3 33.75L28.3 19.01L29.44 18.8ZM86.54 26.67C86.54 31.95 83.16 35.1 77.64 35.1C72.12 35.1 68.78 31.95 68.74 26.67C68.74 21.42 72.16 18.24 77.64 18.24C83.16 18.24 86.54 21.42 86.54 26.67ZM125.54 26.67C125.54 31.95 122.15 35.1 116.64 35.1C111.08 35.1 107.73 31.95 107.73 26.67C107.73 21.42 111.16 18.24 116.64 18.24C122.15 18.24 125.54 21.42 125.54 26.67ZM132.18 34.77L128 34.77C128 34.77 128 18.56 127.96 18.56L132.02 18.56L132.02 21.17L132.31 21.17C133.19 19.33 135.03 18.24 137.79 18.24C141.88 18.24 144.14 20.4 144.14 24.28L144.14 34.77L139.96 34.77L139.96 25.16C139.96 22.71 138.79 21.46 136.24 21.46C133.77 21.46 132.18 22.96 132.18 25.35L132.18 34.77ZM105.18 34.77L101.01 34.77L101.01 18.56L105.18 18.56L105.18 34.77ZM73.04 26.67C73.04 30.08 74.71 32.02 77.64 32.02C80.57 32.02 82.24 30.08 82.24 26.67C82.24 23.29 80.57 21.31 77.64 21.31C74.71 21.31 73.04 23.29 73.04 26.67ZM112.04 26.67C112.04 30.08 113.71 32.02 116.64 32.02C119.52 32.02 121.19 30.08 121.24 26.67C121.24 23.29 119.52 21.31 116.64 21.31C113.71 21.31 112.04 23.29 112.04 26.67Z" fill="#000000" fill-opacity="1.000000" fill-rule="evenodd"/>
	</g>
</svg>
