<svg width="111.000000" height="48.000000" viewBox="0 0 111 48" fill="none" xmlns="http://www.w3.org/2000/svg" xmlns:xlink="http://www.w3.org/1999/xlink">
	<desc>
			Created with Pixso.
	</desc>
	<defs>
		<clipPath id="clip333_1363">
			<rect id="Company logo" width="110.573250" height="48.000000" transform="translate(-0.099609 0.000000)" fill="white" fill-opacity="0"/>
		</clipPath>
	</defs>
	<rect id="Company logo" width="110.573250" height="48.000000" transform="translate(-0.099609 0.000000)" fill="#FFFFFF" fill-opacity="0"/>
	<g clip-path="url(#clip333_1363)">
		<path id="Vector" d="M89.83 20.59C90.25 21.24 90.39 21.97 90.43 22.8L90.5 23.9L90.5 31.6L90.56 32.7C90.68 34.5 92.18 35.83 94.22 35.94L95.46 36L95.46 23.9L95.52 22.8C95.57 21.98 95.71 21.23 96.14 20.58C96.57 19.92 97.2 19.36 97.95 18.98C98.71 18.59 99.57 18.39 100.43 18.39C101.31 18.4 102.16 18.6 102.91 18.99C103.67 19.37 104.29 19.93 104.72 20.6C105.15 21.24 105.28 21.99 105.33 22.8L105.39 23.9L105.39 31.6L105.45 32.7C105.58 34.51 107.07 35.84 109.12 35.94L110.35 36L110.35 22.8C110.35 20.46 109.31 18.23 107.45 16.58C105.59 14.93 103.06 14 100.43 14C99.02 14 97.63 14.26 96.34 14.78C95.06 15.29 93.91 16.04 92.98 16.98C92.05 16.04 90.9 15.29 89.62 14.78C88.33 14.26 86.94 14 85.53 14C83.47 14 81.56 14.55 79.97 15.51C79.01 14.55 76.84 14 75.6 14L75.6 36L76.84 35.94C78.92 35.82 80.42 34.52 80.5 32.7L80.57 31.6L80.57 23.9L80.63 22.8C80.68 21.97 80.81 21.24 81.24 20.59C81.67 19.92 82.3 19.37 83.05 18.98C83.81 18.6 84.66 18.4 85.53 18.4C86.4 18.4 87.26 18.6 88.01 18.98C88.77 19.37 89.39 19.92 89.83 20.59ZM4.86 35.94L6.1 36L24.72 36L24.66 34.9C24.49 33.09 23.04 31.77 21 31.65L19.75 31.6L8.58 31.6L23.48 18.39L23.41 17.3C23.32 15.47 21.81 14.15 19.75 14.05L18.51 14L-0.1 14L-0.04 15.1C0.12 16.89 1.58 18.24 3.62 18.34L4.86 18.4L16.03 18.4L1.14 31.6L1.2 32.7C1.32 34.51 2.8 35.82 4.86 35.94L4.86 35.94ZM70.73 17.22C71.88 18.24 72.8 19.45 73.42 20.79C74.04 22.12 74.36 23.55 74.36 24.99C74.36 26.44 74.04 27.87 73.42 29.2C72.8 30.54 71.88 31.75 70.73 32.77C68.4 34.83 65.24 35.99 61.95 35.99C58.66 35.99 55.5 34.83 53.17 32.77C48.33 28.48 48.33 21.51 53.17 17.22C54.32 16.2 55.69 15.39 57.2 14.83C58.7 14.28 60.31 14 61.94 14C63.58 13.99 65.19 14.28 66.7 14.83C68.21 15.38 69.58 16.19 70.73 17.22L70.73 17.22ZM67.22 20.33C68.61 21.57 69.4 23.25 69.4 25C69.4 26.75 68.61 28.43 67.22 29.67C65.82 30.9 63.92 31.6 61.95 31.6C59.98 31.6 58.08 30.9 56.68 29.67C55.29 28.43 54.5 26.75 54.5 25C54.5 23.25 55.29 21.57 56.68 20.33C58.08 19.09 59.98 18.4 61.95 18.4C63.92 18.4 65.82 19.09 67.22 20.33ZM35.9 14C37.52 14 39.14 14.28 40.64 14.83C42.15 15.39 43.51 16.2 44.66 17.22C49.51 21.51 49.51 28.48 44.66 32.77C42.34 34.83 39.18 35.99 35.89 35.99C32.59 35.99 29.44 34.83 27.11 32.77C22.26 28.48 22.26 21.51 27.11 17.22C28.26 16.2 29.63 15.39 31.13 14.83C32.64 14.28 34.25 14 35.88 14L35.9 14ZM41.15 20.33C42.55 21.57 43.33 23.25 43.33 25C43.33 26.75 42.55 28.43 41.15 29.66C39.76 30.9 37.86 31.6 35.89 31.6C33.91 31.6 32.02 30.9 30.62 29.66C29.23 28.43 28.44 26.75 28.44 25C28.44 23.25 29.23 21.57 30.62 20.33C32.02 19.09 33.91 18.4 35.89 18.4C37.86 18.4 39.76 19.09 41.15 20.33L41.15 20.33Z" fill="#2D8CFF" fill-opacity="1.000000" fill-rule="evenodd"/>
	</g>
</svg>
